<svg width="230" height="230" viewBox="0 0 230 230" fill="none" xmlns="http://www.w3.org/2000/svg">
<rect width="230" height="230" fill="url(#paint0_linear_1_13)"/>
<path d="M11.32 161C11.32 146.664 11.32 132.157 11.32 117.48C11.32 102.803 11.32 88.296 11.32 73.96C16.6107 73.96 21.944 73.96 27.32 73.96C32.696 73.96 38.0293 73.96 43.32 73.96C45.7947 82.664 48.2267 91.496 50.616 100.456C53.0907 109.331 55.5227 118.12 57.912 126.824C60.3013 118.12 62.6907 109.331 65.08 100.456C67.5547 91.496 69.9867 82.664 72.376 73.96C77.6667 73.96 82.9573 73.96 88.248 73.96C93.5387 73.96 98.7867 73.96 103.992 73.96C104.077 88.296 104.163 102.803 104.248 117.48C104.333 132.157 104.419 146.664 104.504 161C100.92 161 97.2933 161 93.624 161C90.04 161 86.456 161 82.872 161C82.872 151.272 82.872 141.459 82.872 131.56C82.872 121.576 82.872 111.72 82.872 101.992C80.312 111.72 77.7093 121.576 75.064 131.56C72.4187 141.459 69.816 151.272 67.256 161C64.0987 161 60.856 161 57.528 161C54.2853 161 51.0427 161 47.8 161C45.24 151.443 42.68 141.8 40.12 132.072C37.56 122.259 35 112.573 32.44 103.016C32.44 112.573 32.44 122.259 32.44 132.072C32.44 141.8 32.44 151.443 32.44 161C29.0267 161 25.528 161 21.944 161C18.36 161 14.8187 161 11.32 161Z" fill="url(#paint1_linear_1_13)"/>
<path d="M136.939 73.96C138.902 82.7493 140.864 91.6667 142.827 100.712C144.79 109.757 146.71 118.717 148.587 127.592C150.55 118.717 152.512 109.757 154.475 100.712C156.523 91.6667 158.486 82.7493 160.363 73.96C163.691 73.96 167.062 73.96 170.475 73.96C173.888 73.96 177.259 73.96 180.587 73.96C182.635 82.7493 184.683 91.624 186.731 100.584C188.779 109.544 190.827 118.461 192.875 127.336C194.838 118.461 196.758 109.544 198.635 100.584C200.598 91.624 202.518 82.7493 204.395 73.96C207.808 73.96 211.222 73.96 214.635 73.96C218.134 73.96 221.59 73.96 225.003 73.96C221.846 88.296 218.688 102.803 215.531 117.48C212.374 132.157 209.216 146.664 206.059 161C201.878 161 197.611 161 193.259 161C188.992 161 184.726 161 180.459 161C178.667 153.064 176.832 145.085 174.955 137.064C173.078 128.957 171.243 120.936 169.451 113C167.744 120.936 165.995 128.957 164.203 137.064C162.411 145.085 160.662 153.064 158.955 161C154.774 161 150.55 161 146.283 161C142.102 161 137.92 161 133.739 161C130.582 146.664 127.424 132.157 124.267 117.48C121.11 102.803 117.952 88.296 114.795 73.96C118.464 73.96 122.134 73.96 125.803 73.96C129.558 73.96 133.27 73.96 136.939 73.96Z" fill="url(#paint2_linear_1_13)"/>
<defs>
<linearGradient id="paint0_linear_1_13" x1="-8.35794" y1="-2.46775" x2="225" y2="266.5" gradientUnits="userSpaceOnUse">
<stop stop-color="#0D253A"/>
<stop offset="0.980305" stop-color="#26468B"/>
</linearGradient>
<linearGradient id="paint1_linear_1_13" x1="3" y1="115" x2="227" y2="115" gradientUnits="userSpaceOnUse">
<stop stop-color="white"/>
<stop offset="1" stop-color="#C1C1C1"/>
</linearGradient>
<linearGradient id="paint2_linear_1_13" x1="106.52" y1="-2.14876" x2="268.074" y2="97.8762" gradientUnits="userSpaceOnUse">
<stop stop-color="#2BD8BB"/>
<stop offset="1" stop-color="#299BD5"/>
</linearGradient>
</defs>
</svg>
