<svg width="503" height="115" viewBox="0 0 503 115" fill="none" xmlns="http://www.w3.org/2000/svg">
<path d="M0.320001 94C0.320001 79.664 0.320001 65.1573 0.320001 50.48C0.320001 35.8027 0.320001 21.296 0.320001 6.96C5.61067 6.96 10.944 6.96 16.32 6.96C21.696 6.96 27.0293 6.96 32.32 6.96C34.7947 15.664 37.2267 24.496 39.616 33.456C42.0907 42.3307 44.5227 51.12 46.912 59.824C49.3013 51.12 51.6907 42.3307 54.08 33.456C56.5547 24.496 58.9867 15.664 61.376 6.96C66.6667 6.96 71.9573 6.96 77.248 6.96C82.5387 6.96 87.7867 6.96 92.992 6.96C93.0773 21.296 93.1627 35.8027 93.248 50.48C93.3333 65.1573 93.4187 79.664 93.504 94C89.92 94 86.2933 94 82.624 94C79.04 94 75.456 94 71.872 94C71.872 84.272 71.872 74.4587 71.872 64.56C71.872 54.576 71.872 44.72 71.872 34.992C69.312 44.72 66.7093 54.576 64.064 64.56C61.4187 74.4587 58.816 84.272 56.256 94C53.0987 94 49.856 94 46.528 94C43.2853 94 40.0427 94 36.8 94C34.24 84.4427 31.68 74.8 29.12 65.072C26.56 55.2587 24 45.5733 21.44 36.016C21.44 45.5733 21.44 55.2587 21.44 65.072C21.44 74.8 21.44 84.4427 21.44 94C18.0267 94 14.528 94 10.944 94C7.36 94 3.81867 94 0.320001 94ZM115.059 114.48C116.766 109.957 118.515 105.392 120.307 100.784C122.184 96.2613 123.976 91.7813 125.683 87.344C121.672 77.5307 117.576 67.632 113.395 57.648C109.299 47.5787 105.246 37.6373 101.235 27.824C104.99 27.824 108.744 27.824 112.499 27.824C116.254 27.824 119.966 27.824 123.635 27.824C125.854 33.2853 128.072 38.832 130.291 44.464C132.595 50.096 134.856 55.6853 137.075 61.232C139.123 55.6853 141.214 50.096 143.347 44.464C145.48 38.832 147.571 33.2853 149.619 27.824C153.288 27.824 156.958 27.824 160.627 27.824C164.296 27.824 167.966 27.824 171.635 27.824C165.918 42.0747 160.158 56.5387 154.355 71.216C148.638 85.808 142.92 100.229 137.203 114.48C133.534 114.48 129.822 114.48 126.067 114.48C122.398 114.48 118.728 114.48 115.059 114.48Z" fill="url(#paint0_linear_1_2)"/>
<path d="M195.064 6.96C197.027 15.7493 198.989 24.6667 200.952 33.712C202.915 42.7573 204.835 51.7173 206.712 60.592C208.675 51.7173 210.637 42.7573 212.6 33.712C214.648 24.6667 216.611 15.7493 218.488 6.96C221.816 6.96 225.187 6.96 228.6 6.96C232.013 6.96 235.384 6.96 238.712 6.96C240.76 15.7493 242.808 24.624 244.856 33.584C246.904 42.544 248.952 51.4613 251 60.336C252.963 51.4613 254.883 42.544 256.76 33.584C258.723 24.624 260.643 15.7493 262.52 6.96C265.933 6.96 269.347 6.96 272.76 6.96C276.259 6.96 279.715 6.96 283.128 6.96C279.971 21.296 276.813 35.8027 273.656 50.48C270.499 65.1573 267.341 79.664 264.184 94C260.003 94 255.736 94 251.384 94C247.117 94 242.851 94 238.584 94C236.792 86.064 234.957 78.0853 233.08 70.064C231.203 61.9573 229.368 53.936 227.576 46C225.869 53.936 224.12 61.9573 222.328 70.064C220.536 78.0853 218.787 86.064 217.08 94C212.899 94 208.675 94 204.408 94C200.227 94 196.045 94 191.864 94C188.707 79.664 185.549 65.1573 182.392 50.48C179.235 35.8027 176.077 21.296 172.92 6.96C176.589 6.96 180.259 6.96 183.928 6.96C187.683 6.96 191.395 6.96 195.064 6.96ZM345.125 90.928C339.237 93.4027 333.392 94.9387 327.589 95.536C321.786 96.1333 316.282 95.792 311.077 94.512C305.957 93.3173 301.392 91.2267 297.381 88.24C293.37 85.2533 290.213 81.456 287.909 76.848C285.69 72.24 284.581 66.9067 284.581 60.848C284.581 55.8133 285.392 51.2053 287.013 47.024C288.72 42.7573 291.109 39.0453 294.181 35.888C297.253 32.6453 300.88 30.1707 305.061 28.464C309.242 26.672 313.808 25.776 318.757 25.776C323.194 25.776 327.205 26.5013 330.789 27.952C334.373 29.4027 337.488 31.4507 340.133 34.096C342.778 36.656 344.912 39.728 346.533 43.312C348.154 46.896 349.178 50.8213 349.605 55.088C350.032 59.3547 349.776 63.8773 348.837 68.656C341.84 68.656 334.8 68.656 327.717 68.656C320.634 68.656 313.594 68.656 306.597 68.656C308.218 71.8987 310.906 74.2027 314.661 75.568C318.501 76.9333 323.024 77.36 328.229 76.848C333.52 76.336 339.152 74.9707 345.125 72.752C345.125 75.7387 345.125 78.768 345.125 81.84C345.125 84.912 345.125 87.9413 345.125 90.928ZM318.245 44.72C315.77 44.72 313.466 45.4027 311.333 46.768C309.285 48.1333 307.706 50.224 306.597 53.04C310.437 53.04 314.277 53.04 318.117 53.04C322.042 53.04 325.925 53.04 329.765 53.04C328.741 50.1387 327.205 48.048 325.157 46.768C323.194 45.4027 320.89 44.72 318.245 44.72ZM382.55 94C379.137 94 375.638 94 372.054 94C368.47 94 364.929 94 361.43 94C361.43 78.5547 361.43 62.9813 361.43 47.28C361.43 31.5787 361.43 16.0053 361.43 0.559998C364.929 0.559998 368.47 0.559998 372.054 0.559998C375.638 0.559998 379.137 0.559998 382.55 0.559998C382.55 5.68 382.55 10.8427 382.55 16.048C382.55 21.2533 382.55 26.416 382.55 31.536C384.683 29.8293 387.115 28.5067 389.846 27.568C392.577 26.544 395.478 26.032 398.55 26.032C402.817 26.032 406.87 26.8853 410.71 28.592C414.55 30.2133 417.921 32.56 420.822 35.632C423.809 38.704 426.113 42.3733 427.734 46.64C429.441 50.9067 430.294 55.6427 430.294 60.848C430.294 65.968 429.441 70.6613 427.734 74.928C426.113 79.1947 423.809 82.9067 420.822 86.064C417.921 89.136 414.55 91.5253 410.71 93.232C406.87 94.9387 402.774 95.792 398.422 95.792C395.35 95.792 392.449 95.28 389.718 94.256C387.073 93.3173 384.683 91.952 382.55 90.16C382.55 90.7573 382.55 91.3973 382.55 92.08C382.55 92.6773 382.55 93.3173 382.55 94ZM395.606 77.104C399.787 77.104 403.073 75.6533 405.462 72.752C407.937 69.7653 409.174 65.7973 409.174 60.848C409.174 55.8987 407.937 51.9733 405.462 49.072C403.073 46.1707 399.787 44.72 395.606 44.72C391.51 44.72 388.225 46.2133 385.75 49.2C383.275 52.1013 382.038 55.984 382.038 60.848C382.038 65.712 383.275 69.6373 385.75 72.624C388.225 75.6107 391.51 77.104 395.606 77.104ZM445.684 114.48C447.391 109.957 449.14 105.392 450.932 100.784C452.809 96.2613 454.601 91.7813 456.308 87.344C452.297 77.5307 448.201 67.632 444.02 57.648C439.924 47.5787 435.871 37.6373 431.86 27.824C435.615 27.824 439.369 27.824 443.124 27.824C446.879 27.824 450.591 27.824 454.26 27.824C456.479 33.2853 458.697 38.832 460.916 44.464C463.22 50.096 465.481 55.6853 467.7 61.232C469.748 55.6853 471.839 50.096 473.972 44.464C476.105 38.832 478.196 33.2853 480.244 27.824C483.913 27.824 487.583 27.824 491.252 27.824C494.921 27.824 498.591 27.824 502.26 27.824C496.543 42.0747 490.783 56.5387 484.98 71.216C479.263 85.808 473.545 100.229 467.828 114.48C464.159 114.48 460.447 114.48 456.692 114.48C453.023 114.48 449.353 114.48 445.684 114.48Z" fill="url(#paint1_linear_1_2)"/>
<defs>
<linearGradient id="paint0_linear_1_2" x1="-8" y1="48" x2="502" y2="48" gradientUnits="userSpaceOnUse">
<stop stop-color="#26468B"/>
<stop offset="1" stop-color="#061B20"/>
</linearGradient>
<linearGradient id="paint1_linear_1_2" x1="227.692" y1="-69.1488" x2="398.033" y2="170.972" gradientUnits="userSpaceOnUse">
<stop stop-color="#2BD8BB"/>
<stop offset="1" stop-color="#299BD5"/>
</linearGradient>
</defs>
</svg>
